<svg xmlns="http://www.w3.org/2000/svg" viewBox="0 0 19.83 17">
  <title>admin</title>
  <g>
    <path d="M2,14v-.65a1,1,0,0,1,.41-.81A10.89,10.89,0,0,1,8,11h.08a6.89,6.89,0,0,1,.59-2C8.45,9,8.23,9,8,9a12.88,12.88,0,0,0-6.61,1.82A2.92,2.92,0,0,0,0,13.35V16H9.26a7.13,7.13,0,0,1-1-2Z"/>
    <path d="M8,8A4,4,0,1,0,4,4,4,4,0,0,0,8,8ZM8,2A2,2,0,1,1,6,4,2,2,0,0,1,8,2Z"/>
    <path d="M18.75,12a4.34,4.34,0,0,0-.06-.63l1.14-1-1-1.73-1.45.49a3.65,3.65,0,0,0-1.08-.63L16,7H14l-.3,1.49a3.65,3.65,0,0,0-1.08.63l-1.45-.49-1,1.73,1.14,1a4.34,4.34,0,0,0-.06.63,4.34,4.34,0,0,0,.06.63l-1.14,1,1,1.73,1.45-.49a3.65,3.65,0,0,0,1.08.63L14,17h2l.3-1.49a3.65,3.65,0,0,0,1.08-.63l1.45.49,1-1.73-1.14-1A4.34,4.34,0,0,0,18.75,12ZM15,14a2,2,0,1,1,2-2A2,2,0,0,1,15,14Z"/>
  </g>
</svg>
