<svg xmlns="http://www.w3.org/2000/svg" viewBox="0 0 18 20">
  <title>visits</title>
  <path d="M17.84,3.22a2.21,2.21,0,0,0-.18-.34,2,2,0,0,0-.54-.54,2.21,2.21,0,0,0-.34-.18A2,2,0,0,0,16,2H15V0H13V2H5V0H3V2H2a2,2,0,0,0-1.12.34,2,2,0,0,0-.54.54,2.21,2.21,0,0,0-.18.34A2,2,0,0,0,0,4V18a2,2,0,0,0,2,2H16a2,2,0,0,0,.78-.16,2.21,2.21,0,0,0,.34-.18,2,2,0,0,0,.54-.54A2.05,2.05,0,0,0,18,18V4A2,2,0,0,0,17.84,3.22ZM2,18V4H16V18Zm7-6.12c-2,0-6,1.08-6,3.58V17H15V15.47C15,13,11,11.88,9,11.88ZM5.31,15A7,7,0,0,1,9,13.88,7,7,0,0,1,12.69,15ZM9,11A3,3,0,1,0,6,8,3,3,0,0,0,9,11ZM9,7A1,1,0,1,1,8,8,1,1,0,0,1,9,7Z"/>
</svg>
